<?xml version="1.0" standalone="no"?>
<!DOCTYPE svg PUBLIC "-//W3C//DTD SVG 20010904//EN"
 "http://www.w3.org/TR/2001/REC-SVG-20010904/DTD/svg10.dtd">
<svg version="1.0" xmlns="http://www.w3.org/2000/svg"
 width="500.000000pt" height="500.000000pt" viewBox="0 0 500.000000 500.000000"
 preserveAspectRatio="xMidYMid meet">

<g transform="translate(0.000000,500.000000) scale(0.100000,-0.100000)"
fill="#000000" stroke="none">
<path d="M2440 4873 c-64 -44 -2307 -1797 -2318 -1812 -58 -73 12 -180 102
-157 14 3 59 33 100 66 l76 60 0 -1324 c0 -1006 3 -1331 12 -1351 25 -56 6
-55 778 -55 l710 0 0 900 0 900 600 0 600 0 0 -900 0 -900 710 0 c772 0 753
-1 778 55 9 20 12 345 12 1351 l0 1324 76 -60 c41 -33 86 -63 100 -66 90 -23
159 84 102 158 -11 13 -2050 1609 -2276 1780 -70 53 -117 62 -162 31z"/>
<path d="M3500 4448 l0 -53 282 -220 c155 -121 290 -226 300 -233 17 -13 18
-2 18 272 l0 286 -300 0 -300 0 0 -52z"/>
</g>
</svg>
